<?xml version="1.0" encoding="UTF-8" standalone="no"?><!DOCTYPE svg PUBLIC "-//W3C//DTD SVG 1.1//EN" "http://www.w3.org/Graphics/SVG/1.1/DTD/svg11.dtd"><svg width="100%" height="100%" viewBox="0 0 6667 3334" version="1.1" xmlns="http://www.w3.org/2000/svg" xmlns:xlink="http://www.w3.org/1999/xlink" xml:space="preserve" xmlns:serif="http://www.serif.com/" style="fill-rule:evenodd;clip-rule:evenodd;stroke-linejoin:round;stroke-miterlimit:2;"><rect x="0" y="0" width="6666.67" height="3333.33"/><g><path d="M3333.33,2916.67l3333.33,-416.667l-0,-2500l-6666.67,0l0,2500l3333.33,416.667Z" style="fill:#222;fill-rule:nonzero;"/><path d="M3333.33,2500l3333.33,-833.333l-0,-1666.67l-6666.67,0l0,1666.67l3333.33,833.333Z" style="fill:#444;fill-rule:nonzero;"/><path d="M3333.33,2083.33l3333.33,-1250l-0,-833.333l-6666.67,0l0,833.333l3333.33,1250Z" style="fill:#666;fill-rule:nonzero;"/><path d="M0,0l3333.33,1666.67l3333.33,-1666.67l-6666.67,0Z" style="fill:#888;fill-rule:nonzero;"/><path d="M1333.33,0l2000,1250l2000,-1250l-4000,0Z" style="fill:#aaa;fill-rule:nonzero;"/><path d="M4444.58,0l-2222.5,0l1111.25,833.333l1111.25,-833.333Z" style="fill:#ccc;fill-rule:nonzero;"/><path d="M3816.25,0l-959.167,0l476.25,416.667l482.917,-416.667Z" style="fill:#eee;fill-rule:nonzero;"/></g></svg>